<svg fill="#000000" width="64px" height="64px" viewBox="-6.48 -6.48 36.96 36.96" xmlns="http://www.w3.org/2000/svg" preserveAspectRatio="xMinYMin" class="jam jam-backpack" stroke="#000000" transform="matrix(1, 0, 0, 1, 0, 0)rotate(0)"><g id="SVGRepo_bgCarrier" stroke-width="0" transform="translate(0.35999999999999943,0.35999999999999943), scale(0.97)"><path transform="translate(-6.48, -6.48), scale(1.155)" d="M16,26.042457678355277C19.389402280892693,26.172968105670495,22.914325734215836,29.482956013411997,25.743350007846633,27.61167237575405C28.540994200619835,25.761145375783713,28.195138923084617,21.461434208006914,27.9869007243665,18.113614012779657C27.8192336047551,15.41805012216778,25.962798735599726,13.363995435405595,24.708357725294206,10.972227323101837C23.371254196579375,8.4228515002801,22.835412981631407,5.376952265858586,20.456504368845927,3.7558548768949453C17.605677058892045,1.813170452737444,13.749185642792552,-0.18019721981315073,10.69415327622093,1.4223059353297156C7.624837810629591,3.032301224269516,8.334866799313275,7.606817342169479,7.009578656503647,10.809377817204219C5.954254729313112,13.359569423396179,3.7936842527362256,15.396816551843838,3.7691304783060353,18.15663229419948C3.7408114942674353,21.339653225643357,4.191265718818683,25.159924985856506,6.866557291991191,26.88481316002288C9.516057779758457,28.593072590369133,12.84987457996003,25.92116071193037,16,26.042457678355277" fill="#7ed0ec" strokewidth="0"></path></g><g id="SVGRepo_tracerCarrier" stroke-linecap="round" stroke-linejoin="round" stroke="#CCCCCC" stroke-width="0.8160000000000001"></g><g id="SVGRepo_iconCarrier"><path d="M3 13v5h8v-5H3zm10-.764V18a2 2 0 0 1-2 2H3a2 2 0 0 1-2-2v-5.764c-.614-.55-1-1.348-1-2.236V7a3 3 0 0 1 3-3h8a3 3 0 0 1 3 3v3c0 .888-.386 1.687-1 2.236zM3 6a1 1 0 0 0-1 1v3a1 1 0 0 0 1 1h8a1 1 0 0 0 1-1V7a1 1 0 0 0-1-1H3zm5 5H6v-1a1 1 0 1 1 2 0v1zm0 2v1a1 1 0 0 1-2 0v-1h2zM3.5 0A1.5 1.5 0 0 1 5 1.5v3a1.5 1.5 0 0 1-3 0v-3A1.5 1.5 0 0 1 3.5 0zm7 0A1.5 1.5 0 0 1 12 1.5v3a1.5 1.5 0 0 1-3 0v-3A1.5 1.5 0 0 1 10.5 0z"></path></g></svg>
